<svg xmlns="http://www.w3.org/2000/svg" xmlns:xlink="http://www.w3.org/1999/xlink" contentStyleType="text/css" height="701px" preserveAspectRatio="none" style="width:1517px;height:701px;background:#FFFFFF;" version="1.1" viewBox="0 0 1517 701" width="1517px" zoomAndPan="magnify"><defs/><g><!--cluster 11be20911658e8bec317a5e8928cf0ad--><g id="cluster_11be20911658e8bec317a5e8928cf0ad"><polygon fill="none" points="301,40.45,311,30.45,715,30.45,715,582.97,705,592.97,301,592.97,301,40.45" style="stroke:#181818;stroke-width:1.0;"/><line style="stroke:#181818;stroke-width:1.0;" x1="705" x2="715" y1="40.45" y2="30.45"/><line style="stroke:#181818;stroke-width:1.0;" x1="301" x2="705" y1="40.45" y2="40.45"/><line style="stroke:#181818;stroke-width:1.0;" x1="705" x2="705" y1="40.45" y2="592.97"/><text fill="#000000" font-family="sans-serif" font-size="14" font-weight="bold" lengthAdjust="spacing" textLength="49" x="479.5" y="56.4451">Mrdoc</text></g><!--cluster 81c3b080dad537de7e10e0987a4bf52e--><g id="cluster_81c3b080dad537de7e10e0987a4bf52e"><polygon fill="none" points="1062,16,1072,6,1442,6,1442,582.97,1432,592.97,1062,592.97,1062,16" style="stroke:#181818;stroke-width:1.0;"/><line style="stroke:#181818;stroke-width:1.0;" x1="1432" x2="1442" y1="16" y2="6"/><line style="stroke:#181818;stroke-width:1.0;" x1="1062" x2="1432" y1="16" y2="16"/><line style="stroke:#181818;stroke-width:1.0;" x1="1432" x2="1432" y1="16" y2="592.97"/><text fill="#000000" font-family="sans-serif" font-size="14" font-weight="bold" lengthAdjust="spacing" textLength="45" x="1225.5" y="31.9951">Mysql</text></g><!--entity 9a9e788ff02c4144ef7cb2dda952e3b8--><g id="elem_9a9e788ff02c4144ef7cb2dda952e3b8"><rect fill="#F1F1F1" height="127.7813" rx="2.5" ry="2.5" style="stroke:#181818;stroke-width:0.5;" width="381" x="317.5" y="70.45"/><rect fill="#F1F1F1" height="10" style="stroke:#181818;stroke-width:0.5;" width="15" x="678.5" y="75.45"/><rect fill="#F1F1F1" height="2" style="stroke:#181818;stroke-width:0.5;" width="4" x="676.5" y="77.45"/><rect fill="#F1F1F1" height="2" style="stroke:#181818;stroke-width:0.5;" width="4" x="676.5" y="81.45"/><text fill="#000000" font-family="sans-serif" font-size="14" font-weight="bold" lengthAdjust="spacing" textLength="102" x="332.5" y="103.4451">mrdoc-mysql</text><text fill="#000000" font-family="sans-serif" font-size="14" lengthAdjust="spacing" textLength="4" x="332.5" y="119.742">&#160;</text><text fill="#000000" font-family="sans-serif" font-size="14" lengthAdjust="spacing" textLength="341" x="332.5" y="136.0389">image: jonnyan404/mrdoc-nginx:0.6.6-with-mysql</text><text fill="#000000" font-family="sans-serif" font-size="14" lengthAdjust="spacing" textLength="99" x="332.5" y="152.3357">restart: always</text><text fill="#000000" font-family="sans-serif" font-size="14" lengthAdjust="spacing" textLength="224" x="332.5" y="168.6326">environment: TZ=Asia/Shanghai</text><text fill="#000000" font-family="sans-serif" font-size="14" lengthAdjust="spacing" textLength="4" x="332.5" y="184.9295">&#160;</text></g><!--entity c494c50a1f54ad1a16de9cf767fad1fb--><g id="elem_c494c50a1f54ad1a16de9cf767fad1fb"><ellipse cx="645" cy="312.68" fill="#F1F1F1" rx="8" ry="8" style="stroke:#181818;stroke-width:0.5;"/><text fill="#000000" font-family="sans-serif" font-size="14" lengthAdjust="spacing" textLength="45" x="622.5" y="342.6751">10086</text></g><!--entity 14beb31cf4ff090d69aea984e1bd0520--><g id="elem_14beb31cf4ff090d69aea984e1bd0520"><rect fill="#F1F1F1" height="39.2969" rx="2.5" ry="2.5" style="stroke:#181818;stroke-width:0.5;" width="158" x="325" y="537.68"/><polygon fill="#F1F1F1" points="466,542.68,466,556.68,478,556.68,478,548.68,472,542.68,466,542.68" style="stroke:#181818;stroke-width:0.5;"/><line style="stroke:#181818;stroke-width:0.5;" x1="472" x2="472" y1="542.68" y2="548.68"/><line style="stroke:#181818;stroke-width:0.5;" x1="478" x2="472" y1="548.68" y2="548.68"/><text fill="#000000" font-family="sans-serif" font-size="14" lengthAdjust="spacing" textLength="128" x="335" y="563.6751">/app/MrDoc/config</text></g><!--entity 3906db9e419cbd32ad3c85bd6adc3a4b--><g id="elem_3906db9e419cbd32ad3c85bd6adc3a4b"><rect fill="#F1F1F1" height="39.2969" rx="2.5" ry="2.5" style="stroke:#181818;stroke-width:0.5;" width="158" x="533" y="537.68"/><polygon fill="#F1F1F1" points="674,542.68,674,556.68,686,556.68,686,548.68,680,542.68,674,542.68" style="stroke:#181818;stroke-width:0.5;"/><line style="stroke:#181818;stroke-width:0.5;" x1="680" x2="680" y1="542.68" y2="548.68"/><line style="stroke:#181818;stroke-width:0.5;" x1="686" x2="680" y1="548.68" y2="548.68"/><text fill="#000000" font-family="sans-serif" font-size="14" lengthAdjust="spacing" textLength="128" x="543" y="563.6751">/app/MrDoc/media</text></g><!--entity 0774aaaf4ef7b1873292e895fd8899ac--><g id="elem_0774aaaf4ef7b1873292e895fd8899ac"><rect fill="#F1F1F1" height="176.6719" rx="2.5" ry="2.5" style="stroke:#181818;stroke-width:0.5;" width="349" x="1077.5" y="46"/><rect fill="#F1F1F1" height="10" style="stroke:#181818;stroke-width:0.5;" width="15" x="1406.5" y="51"/><rect fill="#F1F1F1" height="2" style="stroke:#181818;stroke-width:0.5;" width="4" x="1404.5" y="53"/><rect fill="#F1F1F1" height="2" style="stroke:#181818;stroke-width:0.5;" width="4" x="1404.5" y="57"/><text fill="#000000" font-family="sans-serif" font-size="14" font-weight="bold" lengthAdjust="spacing" textLength="142" x="1092.5" y="78.9951">mysql-with-mrdoc</text><text fill="#000000" font-family="sans-serif" font-size="14" lengthAdjust="spacing" textLength="4" x="1092.5" y="95.292">&#160;</text><text fill="#000000" font-family="sans-serif" font-size="14" lengthAdjust="spacing" textLength="131" x="1092.5" y="111.5889">image: mysql:8.3.0</text><text fill="#000000" font-family="sans-serif" font-size="14" lengthAdjust="spacing" textLength="99" x="1092.5" y="127.8857">restart: always</text><text fill="#000000" font-family="sans-serif" font-size="14" lengthAdjust="spacing" textLength="224" x="1092.5" y="144.1826">environment: TZ=Asia/Shanghai</text><text fill="#000000" font-family="sans-serif" font-size="14" lengthAdjust="spacing" textLength="289" x="1092.5" y="160.4795">environment: MYSQL_DATABASE=mr_doc</text><text fill="#000000" font-family="sans-serif" font-size="14" lengthAdjust="spacing" textLength="229" x="1092.5" y="176.7764">environment: MYSQL_USER=root</text><text fill="#000000" font-family="sans-serif" font-size="14" lengthAdjust="spacing" textLength="309" x="1092.5" y="193.0732">environment: MYSQL_PASSWORD=jiwenlong</text><text fill="#000000" font-family="sans-serif" font-size="14" lengthAdjust="spacing" textLength="4" x="1092.5" y="209.3701">&#160;</text></g><!--entity 56d413f1a16ecf6273b747ab3ec85f55--><g id="elem_56d413f1a16ecf6273b747ab3ec85f55"><ellipse cx="1357" cy="312.68" fill="#F1F1F1" rx="8" ry="8" style="stroke:#181818;stroke-width:0.5;"/><text fill="#000000" font-family="sans-serif" font-size="14" lengthAdjust="spacing" textLength="36" x="1339" y="342.6751">3306</text></g><!--entity 98399632ea7e7ee0ad6ee6e4295513da--><g id="elem_98399632ea7e7ee0ad6ee6e4295513da"><rect fill="#F1F1F1" height="39.2969" rx="2.5" ry="2.5" style="stroke:#181818;stroke-width:0.5;" width="120" x="1192" y="537.68"/><polygon fill="#F1F1F1" points="1295,542.68,1295,556.68,1307,556.68,1307,548.68,1301,542.68,1295,542.68" style="stroke:#181818;stroke-width:0.5;"/><line style="stroke:#181818;stroke-width:0.5;" x1="1301" x2="1301" y1="542.68" y2="548.68"/><line style="stroke:#181818;stroke-width:0.5;" x1="1307" x2="1301" y1="548.68" y2="548.68"/><text fill="#000000" font-family="sans-serif" font-size="14" lengthAdjust="spacing" textLength="90" x="1202" y="563.6751">/var/lib/mysql</text></g><!--entity 95d7ce929f2c8aa0858a310f134d2daa--><g id="elem_95d7ce929f2c8aa0858a310f134d2daa"><ellipse cx="761" cy="447.68" fill="#F1F1F1" rx="8" ry="8" style="stroke:#181818;stroke-width:0.5;"/><text fill="#000000" font-family="sans-serif" font-size="14" lengthAdjust="spacing" textLength="45" x="738.5" y="477.6751">10086</text></g><!--entity 5a7a23833fd97e0c7b70faf3fbd72be5--><g id="elem_5a7a23833fd97e0c7b70faf3fbd72be5"><ellipse cx="1488" cy="447.68" fill="#F1F1F1" rx="8" ry="8" style="stroke:#181818;stroke-width:0.5;"/><text fill="#000000" font-family="sans-serif" font-size="14" lengthAdjust="spacing" textLength="45" x="1465.5" y="477.6751">63306</text></g><!--entity a0b1140d4afeae543dc8b591f8a57005--><g id="elem_a0b1140d4afeae543dc8b591f8a57005"><rect fill="#F1F1F1" height="39.2969" rx="2.5" ry="2.5" style="stroke:#181818;stroke-width:0.5;" width="484" x="7" y="655.97"/><polygon fill="#F1F1F1" points="474,660.97,474,674.97,486,674.97,486,666.97,480,660.97,474,660.97" style="stroke:#181818;stroke-width:0.5;"/><line style="stroke:#181818;stroke-width:0.5;" x1="480" x2="480" y1="660.97" y2="666.97"/><line style="stroke:#181818;stroke-width:0.5;" x1="486" x2="480" y1="666.97" y2="666.97"/><text fill="#000000" font-family="sans-serif" font-size="14" lengthAdjust="spacing" textLength="454" x="17" y="681.9651">/Users/jiwenlong/mine/opensource/MrDoc-v0.9.2/myconfig/config</text></g><!--entity 004f088c8b8be03015f21924f0db2b13--><g id="elem_004f088c8b8be03015f21924f0db2b13"><rect fill="#F1F1F1" height="39.2969" rx="2.5" ry="2.5" style="stroke:#181818;stroke-width:0.5;" width="484" x="526" y="655.97"/><polygon fill="#F1F1F1" points="993,660.97,993,674.97,1005,674.97,1005,666.97,999,660.97,993,660.97" style="stroke:#181818;stroke-width:0.5;"/><line style="stroke:#181818;stroke-width:0.5;" x1="999" x2="999" y1="660.97" y2="666.97"/><line style="stroke:#181818;stroke-width:0.5;" x1="1005" x2="999" y1="666.97" y2="666.97"/><text fill="#000000" font-family="sans-serif" font-size="14" lengthAdjust="spacing" textLength="454" x="536" y="681.9651">/Users/jiwenlong/mine/opensource/MrDoc-v0.9.2/mymedia/media</text></g><!--entity df93b5f73bc38bfe7706ea1ee95b5b5b--><g id="elem_df93b5f73bc38bfe7706ea1ee95b5b5b"><rect fill="#F1F1F1" height="39.2969" rx="2.5" ry="2.5" style="stroke:#181818;stroke-width:0.5;" width="415" x="1044.5" y="655.97"/><polygon fill="#F1F1F1" points="1442.5,660.97,1442.5,674.97,1454.5,674.97,1454.5,666.97,1448.5,660.97,1442.5,660.97" style="stroke:#181818;stroke-width:0.5;"/><line style="stroke:#181818;stroke-width:0.5;" x1="1448.5" x2="1448.5" y1="660.97" y2="666.97"/><line style="stroke:#181818;stroke-width:0.5;" x1="1454.5" x2="1448.5" y1="666.97" y2="666.97"/><text fill="#000000" font-family="sans-serif" font-size="14" lengthAdjust="spacing" textLength="385" x="1054.5" y="681.9651">/Users/jiwenlong/mine/opensource/MrDoc-v0.9.2/mysql</text></g><!--link 9a9e788ff02c4144ef7cb2dda952e3b8 to c494c50a1f54ad1a16de9cf767fad1fb--><g id="link_9a9e788ff02c4144ef7cb2dda952e3b8_c494c50a1f54ad1a16de9cf767fad1fb"><path codeLine="35" d="M557.07,198.5 C587.94,238.23 624.54,285.34 638.84,303.75 " fill="none" id="9a9e788ff02c4144ef7cb2dda952e3b8-c494c50a1f54ad1a16de9cf767fad1fb" style="stroke:#181818;stroke-width:1.0;"/></g><!--link c494c50a1f54ad1a16de9cf767fad1fb to 95d7ce929f2c8aa0858a310f134d2daa--><g id="link_c494c50a1f54ad1a16de9cf767fad1fb_95d7ce929f2c8aa0858a310f134d2daa"><path codeLine="36" d="M651.91,321.6 C672.59,345.31 733.83,415.53 754.27,438.96 " fill="none" id="c494c50a1f54ad1a16de9cf767fad1fb-95d7ce929f2c8aa0858a310f134d2daa" style="stroke:#181818;stroke-width:1.0;"/></g><!--link 14beb31cf4ff090d69aea984e1bd0520 to a0b1140d4afeae543dc8b591f8a57005--><g id="link_14beb31cf4ff090d69aea984e1bd0520_a0b1140d4afeae543dc8b591f8a57005"><path codeLine="37" d="M378.75,577.27 C350.01,598.83 303.34,633.85 274.5,655.49 " fill="none" id="14beb31cf4ff090d69aea984e1bd0520-a0b1140d4afeae543dc8b591f8a57005" style="stroke:#181818;stroke-width:1.0;"/><text fill="#000000" font-family="sans-serif" font-size="13" lengthAdjust="spacing" textLength="14" x="337" y="622.0369">rw</text></g><!--link 9a9e788ff02c4144ef7cb2dda952e3b8 to 14beb31cf4ff090d69aea984e1bd0520--><g id="link_9a9e788ff02c4144ef7cb2dda952e3b8_14beb31cf4ff090d69aea984e1bd0520"><path codeLine="38" d="M492.43,198.37 C468.35,295.85 424.7483,472.3149 410.1483,531.4449 " fill="none" id="9a9e788ff02c4144ef7cb2dda952e3b8-to-14beb31cf4ff090d69aea984e1bd0520" style="stroke:#181818;stroke-width:1.0;stroke-dasharray:7.0,7.0;"/><polygon fill="#181818" points="408.71,537.27,414.7508,529.4913,409.9086,532.4158,406.9841,527.5736,408.71,537.27" style="stroke:#181818;stroke-width:1.0;"/><text fill="#000000" font-family="sans-serif" font-size="13" lengthAdjust="spacing" textLength="23" x="451" y="384.7469">use</text></g><!--link 3906db9e419cbd32ad3c85bd6adc3a4b to 004f088c8b8be03015f21924f0db2b13--><g id="link_3906db9e419cbd32ad3c85bd6adc3a4b_004f088c8b8be03015f21924f0db2b13"><path codeLine="39" d="M637.41,577.27 C666.33,598.83 713.31,633.85 742.34,655.49 " fill="none" id="3906db9e419cbd32ad3c85bd6adc3a4b-004f088c8b8be03015f21924f0db2b13" style="stroke:#181818;stroke-width:1.0;"/><text fill="#000000" font-family="sans-serif" font-size="13" lengthAdjust="spacing" textLength="14" x="700" y="622.0369">rw</text></g><!--link 9a9e788ff02c4144ef7cb2dda952e3b8 to 3906db9e419cbd32ad3c85bd6adc3a4b--><g id="link_9a9e788ff02c4144ef7cb2dda952e3b8_3906db9e419cbd32ad3c85bd6adc3a4b"><path codeLine="40" d="M523.57,198.37 C547.65,295.85 591.2517,472.3149 605.8517,531.4449 " fill="none" id="9a9e788ff02c4144ef7cb2dda952e3b8-to-3906db9e419cbd32ad3c85bd6adc3a4b" style="stroke:#181818;stroke-width:1.0;stroke-dasharray:7.0,7.0;"/><polygon fill="#181818" points="607.29,537.27,609.0159,527.5736,606.0914,532.4158,601.2492,529.4913,607.29,537.27" style="stroke:#181818;stroke-width:1.0;"/><text fill="#000000" font-family="sans-serif" font-size="13" lengthAdjust="spacing" textLength="23" x="571" y="384.7469">use</text></g><!--link 0774aaaf4ef7b1873292e895fd8899ac to 56d413f1a16ecf6273b747ab3ec85f55--><g id="link_0774aaaf4ef7b1873292e895fd8899ac_56d413f1a16ecf6273b747ab3ec85f55"><path codeLine="41" d="M1304.19,222.99 C1323.96,256.18 1343.78,289.47 1352.45,304.04 " fill="none" id="0774aaaf4ef7b1873292e895fd8899ac-56d413f1a16ecf6273b747ab3ec85f55" style="stroke:#181818;stroke-width:1.0;"/></g><!--link 56d413f1a16ecf6273b747ab3ec85f55 to 5a7a23833fd97e0c7b70faf3fbd72be5--><g id="link_56d413f1a16ecf6273b747ab3ec85f55_5a7a23833fd97e0c7b70faf3fbd72be5"><path codeLine="42" d="M1364.8,321.6 C1388.16,345.31 1457.32,415.53 1480.4,438.96 " fill="none" id="56d413f1a16ecf6273b747ab3ec85f55-5a7a23833fd97e0c7b70faf3fbd72be5" style="stroke:#181818;stroke-width:1.0;"/></g><!--link 98399632ea7e7ee0ad6ee6e4295513da to df93b5f73bc38bfe7706ea1ee95b5b5b--><g id="link_98399632ea7e7ee0ad6ee6e4295513da_df93b5f73bc38bfe7706ea1ee95b5b5b"><path codeLine="43" d="M1252,577.27 C1252,598.89 1252,634.06 1252,655.69 " fill="none" id="98399632ea7e7ee0ad6ee6e4295513da-df93b5f73bc38bfe7706ea1ee95b5b5b" style="stroke:#181818;stroke-width:1.0;"/><text fill="#000000" font-family="sans-serif" font-size="13" lengthAdjust="spacing" textLength="14" x="1253" y="622.0369">rw</text></g><!--link 0774aaaf4ef7b1873292e895fd8899ac to 98399632ea7e7ee0ad6ee6e4295513da--><g id="link_0774aaaf4ef7b1873292e895fd8899ac_98399632ea7e7ee0ad6ee6e4295513da"><path codeLine="44" d="M1252,223.08 C1252,324.05 1252,476.94 1252,531.33 " fill="none" id="0774aaaf4ef7b1873292e895fd8899ac-to-98399632ea7e7ee0ad6ee6e4295513da" style="stroke:#181818;stroke-width:1.0;stroke-dasharray:7.0,7.0;"/><polygon fill="#181818" points="1252,537.33,1256,528.33,1252,532.33,1248,528.33,1252,537.33" style="stroke:#181818;stroke-width:1.0;"/><text fill="#000000" font-family="sans-serif" font-size="13" lengthAdjust="spacing" textLength="23" x="1253" y="384.7469">use</text></g><!--SRC=[fLHjRzis4FwkNo7uqnR0ql5D90raW8Vqsu9kTOjX6uRYI1uT5PQKIcxSeEX_7oKdNG8488h2dsGUdxldXOU7mt3gsizjlo_w8L2vkXx3u5SbJYLZZZXOnXfbo3ZoWcbKP2mtFWA6yajH-g6x7NhgZwL5IzgO685xoQIagBtZ8Q1Ld8GpvJ_5nKKtWw-x- -dZuUAYADeEzxGfFmnzVu-z15cV2_fzst_UGDLKpVhK7c_EDugHfYEEnqs9XnFUJmNrT-quz5rglodV_dsvdLgiTpVOxs-mBOf_Yvz-BbSCm3GB7o-jz0gGHIKnC6HD8EkZRdHCdz4L2RkDw8_bgiRRs_fwl1fyxOS-jlkp8DAH4yn7cLXQ28r5GciaCHT0SNWPeAFGud9VM6Y2ioIPzIu8Za5uerneC7Y1qXLV7psOwIvN3FF2WO60GGaTI1C30cjqAez9sESUWDOI4UCilcD62svvyal5O8orwCyUpE0FiivgFp5YETgOIbJmdM8_Ext-Q_V7R- -ljc-tlsvthowxyNrgyrB9kzshDvVZC1nVElnzkzlz-VhDrUM7zaJzOKW9VR1K23WxgfeWcOYpbUHZmxLmMcfqWfAkKQcdXjpXM1zQLtVVjBL6MDi8JgYJhfGItH0r9BbLYec0oOxd0R8gQ4-MsyYzGGIZ30e6aGaPU41Sofl_fqEDN1WXOh2Qm6kd8M8KqGND7JsRxjr4urH_OrftRK_rS4lzD7mQFPsZjBw3obOyKJY7ycas4HnZ4eB4I4XAYk2DKvP5Wqe3_4Yp9S1FOWmW8nYJyDDI005CHSuiJty6nnqJFz3gqPeGhN0g9Z-zC2wIrj0GCYAhtFmhijjc7TRv1vyhM52ohkVMmeAIywVSbAlnjCeJgwfGLRzaTz6CzscYLP5REijqEKk_TxfiqyVfiXjhdYxxp7C5PvJSSypjWmKbbyn7fRB47fJADdrGwZy0]--></g></svg>